<mxfile host="app.diagrams.net" agent="Mozilla/5.0 (Windows NT 10.0; Win64; x64) AppleWebKit/537.36 (KHTML, like Gecko) Chrome/137.0.0.0 Safari/537.36" version="27.1.5">
  <diagram name="Página-1" id="rLJniQAr9hiyqhvgFqNu">
    <mxGraphModel grid="1" page="1" gridSize="10" guides="1" tooltips="1" connect="1" arrows="1" fold="1" pageScale="1" pageWidth="827" pageHeight="1169" math="0" shadow="0">
      <root>
        <mxCell id="0" />
        <mxCell id="1" parent="0" />
        <mxCell id="vyLYgyfq_LQGrhSL3B5z-2" value="now = time.time()&#xa;nodes_to_restore  = [], modified = False&#xa;Obtener lock state_lock" style="whiteSpace=wrap;strokeWidth=2;" vertex="1" parent="1">
          <mxGeometry x="252" y="120" width="260" height="126" as="geometry" />
        </mxCell>
        <mxCell id="vyLYgyfq_LQGrhSL3B5z-13" value="Actualizar lista inactive_routers:&#xa;    - Eliminar nodos activos&#xa;    - Agregar nodos removidos" style="whiteSpace=wrap;strokeWidth=2;" vertex="1" parent="1">
          <mxGeometry x="252" y="704" width="260" height="90" as="geometry" />
        </mxCell>
        <mxCell id="vyLYgyfq_LQGrhSL3B5z-14" value="inactive_routers vacio" style="rhombus;strokeWidth=2;whiteSpace=wrap;" vertex="1" parent="1">
          <mxGeometry x="252.5" y="844" width="265" height="250" as="geometry" />
        </mxCell>
        <mxCell id="vyLYgyfq_LQGrhSL3B5z-15" value="Retornar G, flows, inactive_routers, modified" style="whiteSpace=wrap;strokeWidth=2;" vertex="1" parent="1">
          <mxGeometry x="252" y="1371" width="260" height="78" as="geometry" />
        </mxCell>
        <mxCell id="vyLYgyfq_LQGrhSL3B5z-20" value="" style="curved=1;startArrow=none;endArrow=block;exitX=0.5;exitY=1;entryX=0.5;entryY=0;rounded=0;" edge="1" parent="1" target="vyLYgyfq_LQGrhSL3B5z-2">
          <mxGeometry relative="1" as="geometry">
            <Array as="points" />
            <mxPoint x="382" y="93" as="sourcePoint" />
          </mxGeometry>
        </mxCell>
        <mxCell id="vyLYgyfq_LQGrhSL3B5z-21" value="" style="curved=1;startArrow=none;endArrow=block;exitX=0.5;exitY=1;rounded=0;" edge="1" parent="1" source="vyLYgyfq_LQGrhSL3B5z-2" target="vyLYgyfq_LQGrhSL3B5z-45">
          <mxGeometry relative="1" as="geometry">
            <Array as="points" />
            <mxPoint x="382" y="276" as="targetPoint" />
          </mxGeometry>
        </mxCell>
        <mxCell id="vyLYgyfq_LQGrhSL3B5z-35" value="" style="curved=1;startArrow=none;endArrow=block;exitX=0.497;exitY=0.961;entryX=0.5;entryY=0;rounded=0;exitDx=0;exitDy=0;exitPerimeter=0;" edge="1" parent="1" source="vyLYgyfq_LQGrhSL3B5z-46" target="vyLYgyfq_LQGrhSL3B5z-13">
          <mxGeometry relative="1" as="geometry">
            <Array as="points" />
            <mxPoint x="386.49999999999955" y="668" as="sourcePoint" />
          </mxGeometry>
        </mxCell>
        <mxCell id="vyLYgyfq_LQGrhSL3B5z-36" value="" style="curved=1;startArrow=none;endArrow=block;entryX=0.5;entryY=0;rounded=0;" edge="1" parent="1" source="vyLYgyfq_LQGrhSL3B5z-13" target="vyLYgyfq_LQGrhSL3B5z-14">
          <mxGeometry relative="1" as="geometry">
            <Array as="points" />
            <mxPoint x="393" y="794" as="sourcePoint" />
          </mxGeometry>
        </mxCell>
        <mxCell id="vyLYgyfq_LQGrhSL3B5z-37" value="Si" style="curved=1;startArrow=none;endArrow=block;exitX=0;exitY=1;entryX=0.25;entryY=0;rounded=0;exitDx=0;exitDy=0;" edge="1" parent="1" source="vyLYgyfq_LQGrhSL3B5z-14" target="vyLYgyfq_LQGrhSL3B5z-15">
          <mxGeometry relative="1" as="geometry">
            <Array as="points">
              <mxPoint x="310" y="1050" />
              <mxPoint x="290" y="1210" />
            </Array>
          </mxGeometry>
        </mxCell>
        <mxCell id="vyLYgyfq_LQGrhSL3B5z-45" value="Lógica si vuelve a funcionar un nodo" style="whiteSpace=wrap;strokeWidth=2;strokeColor=#FF0000;" vertex="1" parent="1">
          <mxGeometry x="252" y="280" width="260" height="78" as="geometry" />
        </mxCell>
        <mxCell id="vyLYgyfq_LQGrhSL3B5z-46" value="Lógica para nodo caido" style="whiteSpace=wrap;strokeWidth=2;strokeColor=#007FFF;" vertex="1" parent="1">
          <mxGeometry x="252" y="590" width="260" height="78" as="geometry" />
        </mxCell>
        <mxCell id="vyLYgyfq_LQGrhSL3B5z-47" value="" style="curved=1;startArrow=none;endArrow=block;exitX=0.5;exitY=1;rounded=0;exitDx=0;exitDy=0;entryX=0.5;entryY=0;entryDx=0;entryDy=0;" edge="1" parent="1" source="vyLYgyfq_LQGrhSL3B5z-45" target="dSHpbomC72X9f8JfrX-J-216">
          <mxGeometry relative="1" as="geometry">
            <Array as="points" />
            <mxPoint x="385.24999999999955" y="358" as="sourcePoint" />
            <mxPoint x="382" y="420" as="targetPoint" />
          </mxGeometry>
        </mxCell>
        <mxCell id="TuYGVxu0KHbMuTRknyn1-56" value="remove_inactive_nodes(G, flows, inactive_routers, tables)" style="shape=trapezoid;perimeter=trapezoidPerimeter;fixedSize=1;strokeWidth=2;whiteSpace=wrap;" vertex="1" parent="1">
          <mxGeometry x="231" y="10" width="302" height="87" as="geometry" />
        </mxCell>
        <mxCell id="TuYGVxu0KHbMuTRknyn1-58" value="lóogica para comprobar flujos" style="whiteSpace=wrap;strokeWidth=2;strokeColor=#FFD966;" vertex="1" parent="1">
          <mxGeometry x="369.5" y="1220" width="260" height="78" as="geometry" />
        </mxCell>
        <mxCell id="TuYGVxu0KHbMuTRknyn1-59" value="" style="curved=1;startArrow=none;endArrow=block;exitX=0.5;exitY=1;entryX=0.75;entryY=0;rounded=0;entryDx=0;entryDy=0;exitDx=0;exitDy=0;" edge="1" parent="1" source="TuYGVxu0KHbMuTRknyn1-58" target="vyLYgyfq_LQGrhSL3B5z-15">
          <mxGeometry relative="1" as="geometry">
            <Array as="points">
              <mxPoint x="489.5" y="1340" />
            </Array>
            <mxPoint x="489.5" y="1180" as="sourcePoint" />
            <mxPoint x="564.5" y="1244" as="targetPoint" />
          </mxGeometry>
        </mxCell>
        <mxCell id="dSHpbomC72X9f8JfrX-J-63" value="Si" style="curved=1;startArrow=none;endArrow=block;exitX=1;exitY=0.24;entryX=1;entryY=0.93;rounded=0;" edge="1" parent="1">
          <mxGeometry relative="1" as="geometry">
            <Array as="points">
              <mxPoint x="1298" y="1804" />
              <mxPoint x="1298" y="677" />
            </Array>
            <mxPoint x="1178" y="646.5400000000002" as="targetPoint" />
          </mxGeometry>
        </mxCell>
        <mxCell id="dSHpbomC72X9f8JfrX-J-216" value="Para cada r en nodes_to_restore&#xa;inactive_routers.remove r&#xa;modified = True" style="whiteSpace=wrap;strokeWidth=2;strokeColor=#00CC00;" vertex="1" parent="1">
          <mxGeometry x="252" y="420" width="260" height="126" as="geometry" />
        </mxCell>
        <mxCell id="dSHpbomC72X9f8JfrX-J-217" value="" style="curved=1;startArrow=none;endArrow=block;exitX=0.5;exitY=1;rounded=0;exitDx=0;exitDy=0;entryX=0.5;entryY=0;entryDx=0;entryDy=0;" edge="1" parent="1" source="dSHpbomC72X9f8JfrX-J-216" target="vyLYgyfq_LQGrhSL3B5z-46">
          <mxGeometry relative="1" as="geometry">
            <Array as="points" />
            <mxPoint x="380" y="390" as="sourcePoint" />
            <mxPoint x="380" y="452" as="targetPoint" />
          </mxGeometry>
        </mxCell>
        <mxCell id="M-3lh3U3nwOCPH1phNuK-1" value="inactive_nodes_set = set(inactive_routers)&#xa;" style="whiteSpace=wrap;strokeWidth=2;" vertex="1" parent="1">
          <mxGeometry x="369.5" y="1130" width="260" height="50" as="geometry" />
        </mxCell>
        <mxCell id="M-3lh3U3nwOCPH1phNuK-2" value="" style="curved=1;startArrow=none;endArrow=block;exitX=0.5;exitY=1;entryX=0.5;entryY=0;rounded=0;entryDx=0;entryDy=0;exitDx=0;exitDy=0;" edge="1" parent="1" source="M-3lh3U3nwOCPH1phNuK-1" target="TuYGVxu0KHbMuTRknyn1-58">
          <mxGeometry relative="1" as="geometry">
            <Array as="points" />
            <mxPoint x="543" y="1320" as="sourcePoint" />
            <mxPoint x="490" y="1393" as="targetPoint" />
          </mxGeometry>
        </mxCell>
        <mxCell id="M-3lh3U3nwOCPH1phNuK-3" value="" style="curved=1;startArrow=none;endArrow=block;exitX=1;exitY=1;entryX=0.5;entryY=0;rounded=0;entryDx=0;entryDy=0;exitDx=0;exitDy=0;" edge="1" parent="1" source="vyLYgyfq_LQGrhSL3B5z-14" target="M-3lh3U3nwOCPH1phNuK-1">
          <mxGeometry relative="1" as="geometry">
            <Array as="points">
              <mxPoint x="490" y="1060" />
            </Array>
            <mxPoint x="490" y="1200" as="sourcePoint" />
            <mxPoint x="490" y="1240" as="targetPoint" />
          </mxGeometry>
        </mxCell>
      </root>
    </mxGraphModel>
  </diagram>
</mxfile>
